<?xml version="1.0" encoding="utf-8"?>
<!-- Generator: Adobe Illustrator 27.0.0, SVG Export Plug-In . SVG Version: 6.00 Build 0)  -->
<svg version="1.1" id="_레이어_1" xmlns="http://www.w3.org/2000/svg" xmlns:xlink="http://www.w3.org/1999/xlink" x="0px"
	 y="0px" viewBox="0 0 43 43" style="enable-background:new 0 0 43 43;" xml:space="preserve">
<style type="text/css">
	.st0{fill:#73979B;}
	.st1{fill:none;}
</style>
<path class="st0" d="M21.5,4.6c-4.2,0-7.7,3.5-7.7,7.7c0,4.2,3.5,7.7,7.7,7.7c4.2,0,7.7-3.5,7.7-7.7C29.2,8,25.8,4.6,21.5,4.6z
	 M21.5,17.1c-2.7,0-4.8-2.2-4.8-4.8c0-2.7,2.2-4.8,4.8-4.8c2.7,0,4.8,2.2,4.8,4.8C26.4,14.9,24.2,17.1,21.5,17.1z"/>
<path class="st1" d="M21.5,3.2c-10.2,0-18.4,8.3-18.4,18.4c0,3.6,1,6.9,2.9,9.9c2.3-6.5,8.5-10.9,15.5-10.9c7,0,13.2,4.4,15.5,10.9
	c1.9-2.9,2.9-6.4,2.9-9.9C40,11.4,31.7,3.2,21.5,3.2z"/>
<path class="st0" d="M21.4,0.4C21.4,0.4,21.4,0.4,21.4,0.4C21.4,0.4,21.4,0.4,21.4,0.4C21.5,0.4,21.4,0.4,21.4,0.4z"/>
<path class="st0" d="M0.3,21.6C0.3,21.6,0.3,21.6,0.3,21.6C0.3,21.6,0.3,21.6,0.3,21.6C0.3,21.6,0.3,21.6,0.3,21.6z"/>
<path class="st1" d="M0.3,21.6C0.3,21.6,0.3,21.6,0.3,21.6C0.3,21.6,0.3,21.6,0.3,21.6C0.3,21.6,0.3,21.6,0.3,21.6z"/>
<path class="st1" d="M21.4,0.4C21.4,0.4,21.4,0.4,21.4,0.4C21.4,0.4,21.4,0.4,21.4,0.4C21.5,0.4,21.4,0.4,21.4,0.4z"/>
<path class="st1" d="M21.5,3.2c-10.2,0-18.4,8.3-18.4,18.4c0,3.6,1,6.9,2.9,9.9c2.3-6.5,8.5-10.9,15.5-10.9c7,0,13.2,4.4,15.5,10.9
	c1.9-2.9,2.9-6.4,2.9-9.9C40,11.4,31.7,3.2,21.5,3.2z"/>
<path class="st0" d="M36.7,6.3C32.6,2.3,27.2,0,21.5,0C15.7,0,10.3,2.3,6.2,6.4C2.2,10.5,0,15.9,0,21.6C0,26.9,1.9,32,5.4,35.9
	l1.4,1.4c4,3.7,9.1,5.7,14.6,5.7c5.4,0,10.6-2,14.7-5.7c0.6-0.5,1-0.9,1.4-1.4c3.5-3.9,5.4-9,5.4-14.3C43,15.8,40.8,10.4,36.7,6.3z
	 M21.4,0.4C21.4,0.4,21.4,0.4,21.4,0.4C21.3,0.4,21.3,0.4,21.4,0.4C21.3,0.4,21.3,0.4,21.4,0.4z M0.4,21.5
	C0.4,21.5,0.4,21.5,0.4,21.5C0.4,21.5,0.4,21.5,0.4,21.5C0.4,21.5,0.4,21.5,0.4,21.5z M21.5,39.8c-4.9,0-9.5-1.9-13-5.4
	c1.1-6.1,6.6-10.7,12.8-10.7l0.2,0c6.3,0,11.8,4.6,13,10.7C30.9,37.9,26.3,39.8,21.5,39.8z M36.8,31.4c-2.3-6.4-8.5-10.8-15.4-10.8
	c-6.9,0-13.1,4.4-15.4,10.8c-1.9-3-2.9-6.3-2.9-9.9c0-10.1,8.2-18.3,18.3-18.3c10.1,0,18.3,8.2,18.3,18.3
	C39.8,25.1,38.7,28.4,36.8,31.4z"/>
</svg>
