<?xml version="1.0" encoding="utf-8"?>
<!-- Generator: Adobe Illustrator 27.0.0, SVG Export Plug-In . SVG Version: 6.00 Build 0)  -->
<svg version="1.1" id="_레이어_1" xmlns="http://www.w3.org/2000/svg" xmlns:xlink="http://www.w3.org/1999/xlink" x="0px"
	 y="0px" viewBox="0 0 43 43" style="enable-background:new 0 0 43 43;" xml:space="preserve">
<style type="text/css">
	.st0{fill:#73979B;}
</style>
<g>
	<path class="st0" d="M40.8,12.7H2.2C1,12.7,0,11.5,0,10.2s1-2.5,2.2-2.5h38.5c1.2,0,2.2,1.1,2.2,2.5S42,12.7,40.8,12.7z"/>
</g>
<g>
	<path class="st0" d="M40.8,23.7H2.2C1,23.7,0,22.6,0,21.2s1-2.5,2.2-2.5h38.5c1.2,0,2.2,1.1,2.2,2.5S42,23.7,40.8,23.7z"/>
</g>
<g>
	<path class="st0" d="M40.8,34.7H2.2C1,34.7,0,33.6,0,32.2s1-2.5,2.2-2.5h38.5c1.2,0,2.2,1.1,2.2,2.5S42,34.7,40.8,34.7z"/>
</g>
</svg>
