<?xml version="1.0" encoding="utf-8"?>
<!-- Generator: Adobe Illustrator 27.0.0, SVG Export Plug-In . SVG Version: 6.00 Build 0)  -->
<svg version="1.1" id="_레이어_1" xmlns="http://www.w3.org/2000/svg" xmlns:xlink="http://www.w3.org/1999/xlink" x="0px"
	 y="0px" viewBox="0 0 43 43" style="enable-background:new 0 0 43 43;" xml:space="preserve">
<style type="text/css">
	.st0{fill:#73979B;}
</style>
<path class="st0" d="M21.5,3.3c10,0,18.2,8.2,18.2,18.2s-8.2,18.2-18.2,18.2S3.3,31.5,3.3,21.5S11.5,3.3,21.5,3.3 M21.5,0
	C9.7,0,0,9.7,0,21.5S9.7,43,21.5,43S43,33.3,43,21.5S33.3,0,21.5,0L21.5,0z"/>
<path class="st0" d="M37.7,25.2c-0.1-2.8-1.9-5.1-4.5-5.8v-2.1c0-6.3-5.1-11.4-11.4-11.4S10.4,11,10.4,17.3v2.1
	c-2.5,0.8-4.3,3.3-4.3,6c0,3.3,2.5,6,5.8,6.3l1.5,0.1V17.3c0-4.6,3.8-8.4,8.4-8.4s8.4,3.8,8.4,8.4v12.4c0,0.2,0,0.3-0.1,0.4
	c-0.2,0.4-0.4,0.6-0.6,0.7l-0.4,0.2c-0.4,0.4-0.8,0.6-1.2,0.9l-0.3,0.2c-0.5,0.3-1.1,0.5-1.8,0.6c-0.6-0.8-1.5-1.3-2.4-1.3
	c-1.6,0-2.9,1.3-2.9,2.9s1.3,2.9,2.9,2.9c1,0,2-0.6,2.5-1.3c1.3-0.2,2.2-0.5,3.2-1c0.7-0.4,1.4-0.9,2.2-1.5c0.7-0.6,1.1-1.1,1.4-1.8
	c2.9-0.7,4.9-3.2,4.9-6.1L37.7,25.2z M10.3,22.8V28C9.5,27.3,9,26.4,9,25.4C9,24.4,9.5,23.4,10.3,22.8z M34.6,25.4
	c0,1.2-0.6,2.2-1.5,2.8v-5.5C34,23.2,34.6,24.2,34.6,25.4z"/>
</svg>
