<?xml version="1.0" encoding="UTF-8"?>
<svg id="_레이어_1" data-name="레이어 1" xmlns="http://www.w3.org/2000/svg" viewBox="0 0 119.94 119.94">
  <defs>
    <style>
      .cls-1 {
        fill: #fff;
      }

      .cls-2 {
        fill: #fcfdfd;
      }

      .cls-3 {
        fill: #f9fcfb;
      }

      .cls-4 {
        fill: #36a7a0;
      }
    </style>
  </defs>
  <circle class="cls-1" cx="59.97" cy="59.97" r="59.97"/>
  <circle class="cls-4" cx="59.97" cy="59.97" r="53.58"/>
  <path class="cls-3" d="M85.73,83.67c-5.08,1.87-9.77,5.33-15.67,3.77-5.49-1.45-11.08-2.64-16.45-4.46-4.17-1.41-4.78-5.08-4.17-9.05,.92-6.03,4.83-10.47,8.2-15.12,2.29-3.16,5.34-5.76,7.89-8.74,3.58-4.17,4.75-9.03,3.67-14.43-1.25-6.22-3.63-12.08-5.72-18.03-.54-1.54-1.6-3.22,.33-4.45,2.27-1.45,3.31,.69,4.42,1.95,2.56,2.91,3.86,6.56,5.46,10.02,4.45,9.68,10.89,17.16,20.98,21.61,11.72,5.17,15.01,21.49,6.83,31.42-1.41,1.71-3.23,3.42-5.35,3.03-1.89-.35-1.12-2.76-1.45-4.32-.4-1.87-1.74-3.25-3.4-1.31-2.14,2.49-4.99,4.59-5.61,8.15l.04-.04Zm5.91-30.89c-5.91-.04-10.12,2.97-10.14,7.24-.02,3.51,7,10.79,10.36,10.75,3.18-.04,7.94-6.47,8.05-10.89,.11-4.38-3.02-7.07-8.26-7.11Z"/>
  <path class="cls-3" d="M49.66,39.04c.27-1.95,.76-4.51,3.44-4.27,3.41,.31,4.27,3.34,4.28,6.24,0,2.15-.73,4.39-3.46,4.59-2.21,.17-4.4-3.22-4.26-6.56Z"/>
  <path class="cls-3" d="M87.05,32.34c.19-1.57,.61-3.74,2.84-3.66,3.28,.12,4.2,2.88,4.39,5.62,.16,2.26-1.19,4.23-3.18,4.91-1.68,.57-4.05-3.51-4.05-6.87Z"/>
  <path class="cls-3" d="M85.69,83.72c1.37,.54,2.19-.33,2.98-1.2,1.18-1.29,2.51-2.46,4.28-1.36,1.11,.69,.91,2.2,.56,3.23-.71,2.09-2.18,3.88-4.44,4.07-1.2,.1-3.02-.39-3.24-2.31-.09-.82-.07-1.65-.1-2.47,0,0-.04,.04-.04,.04Z"/>
  <path class="cls-4" d="M91.65,52.79c5.25,.04,8.37,2.72,8.26,7.11-.11,4.41-4.87,10.85-8.05,10.89-3.36,.04-10.37-7.24-10.36-10.75,.02-4.28,4.23-7.29,10.14-7.24Z"/>
  <rect class="cls-2" x="19.97" y="60.27" width="12.92" height="40.9" rx="1.66" ry="1.66"/>
  <rect class="cls-2" x="20.52" y="60.67" width="11.82" height="40.09" rx="1.54" ry="1.54" transform="translate(107.15 54.29) rotate(90)"/>
</svg>